# xmcd CD database file
#
# Track frame offsets:
#	150
#	19400
#	36852
#	54005
#	70780
#	88110
#	92465
#	108790
#	128117
#	145227
#	152547
#	166952
#
# Disc length: 2368 seconds
#
# Revision: 0
# Processed by: cddbd v1.5.2PL0 Copyright (c) Steve Scherf et al.
# Submitted via: CDex 1.51
#
DISCID=8e093e0c
DTITLE=Boss Band - Country ohne Grenzen
DYEAR=1990
DGENRE=Country
TTITLE0=German American Cowboy
TTITLE1=Portland Daheim
TTITLE2=Mexico
TTITLE3=Carolina
TTITLE4=Frei Frei Frei
TTITLE5=German American Cowboy2
TTITLE6=Oh Marie
TTITLE7=Littlesea
TTITLE8=Traumlied
TTITLE9=Opa's Seitensprung
TTITLE10=Wo ist Anna
TTITLE11=Die Countrymusik ist Dabei
EXTD=YEAR: 1990
EXTT0=
EXTT1=
EXTT2=
EXTT3=
EXTT4=
EXTT5=
EXTT6=
EXTT7=
EXTT8=
EXTT9=
EXTT10=
EXTT11=
PLAYORDER=
